<svg width="40" height="48" viewBox="0 0 40 48" fill="none" xmlns="http://www.w3.org/2000/svg">
<path d="M16 0C14.9531 0 13.8828 0.367188 13.125 1.125C12.3672 1.88281 12 2.95313 12 4V6H0V10H2V42C2 45.2891 4.71094 48 8 48H32C35.2891 48 38 45.2891 38 42V10H40V6H28V4C28 2.95313 27.6328 1.88281 26.875 1.125C26.1172 0.367188 25.0469 0 24 0H16ZM16 4H24V6H16V4ZM6 10H34V42C34 43.1094 33.1094 44 32 44H8C6.89063 44 6 43.1094 6 42V10ZM10 16V38H14V16H10ZM18 16V38H22V16H18ZM26 16V38H30V16H26Z" fill="#BEB097"/>
</svg>
